<?xml version="1.0" encoding="utf-8"?>
<!-- Generator: Adobe Illustrator 21.0.0, SVG Export Plug-In . SVG Version: 6.00 Build 0)  -->
<svg version="1.1" id="Ebene_1" xmlns="http://www.w3.org/2000/svg" xmlns:xlink="http://www.w3.org/1999/xlink" x="0px" y="0px"
	 viewBox="0 0 841.9 235" style="enable-background:new 0 0 841.9 235;" xml:space="preserve">
<style type="text/css">
	.st0{fill:#FFFFFF;}
</style>
<g>
	<path class="st0" d="M310.5,116.3h-13.8c-2.6,0-4,1-4.3,3.1l-12.6,68.9l-13.8-44.4c-0.3-1-0.9-1.9-1.7-2.7
		c-0.8-0.8-1.9-1.1-3.2-1.1h-8.4c-2.3,0-4,1.3-5.1,3.8l-13.6,44.4l-12.7-68.9c-0.2-1.1-0.6-1.9-1.2-2.4c-0.6-0.5-1.6-0.7-2.9-0.7
		h-13.8c-0.9,0-1.7,0.3-2.3,0.9c-0.6,0.6-0.9,1.4-0.9,2.3l0.2,1.2l18.1,98.1c0.7,3.1,2.6,4.6,5.5,4.6h10.4c2.8,0,4.5-1.3,5.4-3.8
		l17.1-50.8l17.1,50.8c0.3,1,0.9,1.9,1.8,2.7c0.9,0.8,2.1,1.1,3.5,1.1h10.4c1.5,0,2.8-0.4,3.8-1.2c1-0.8,1.6-1.9,1.8-3.4l18.1-98.1
		c0.1-0.3,0.2-0.7,0.2-1.2c0-0.9-0.3-1.7-0.9-2.3C312,116.6,311.3,116.3,310.5,116.3z"/>
	<path class="st0" d="M403.7,205.7h-51.4V178h46.8c1.1,0,2-0.3,2.8-1c0.7-0.7,1.1-1.6,1.1-2.7v-9.6c0-1.1-0.4-2-1.1-2.8
		c-0.7-0.7-1.6-1.1-2.8-1.1h-46.8v-26.8h50.2c1.1,0,2-0.3,2.8-1c0.7-0.7,1.1-1.6,1.1-2.7v-10.3c0-1.1-0.4-2-1.1-2.8
		c-0.7-0.7-1.6-1.1-2.8-1.1H335c-1.1,0-2,0.4-2.7,1.1c-0.7,0.7-1,1.6-1,2.8v99.7c0,1,0.4,1.9,1.1,2.6c0.7,0.7,1.6,1.1,2.6,1.1h68.7
		c1.1,0,2-0.3,2.8-1c0.7-0.7,1.1-1.6,1.1-2.7v-10.4c0-1.1-0.4-2-1.1-2.7C405.8,206,404.9,205.7,403.7,205.7z"/>
	<path class="st0" d="M183.4,205.7H132V178h46.9c1.1,0,2-0.3,2.8-1c0.7-0.7,1.1-1.6,1.1-2.7v-9.6c0-1.1-0.4-2-1.1-2.8
		c-0.7-0.7-1.6-1.1-2.8-1.1H132v-26.8h50.2c1.1,0,2-0.3,2.8-1c0.7-0.7,1.1-1.6,1.1-2.7v-10.3c0-1.1-0.4-2-1.1-2.8
		c-0.7-0.7-1.6-1.1-2.8-1.1h-67.5c-1.1,0-2,0.4-2.7,1.1c-0.7,0.7-1,1.6-1,2.8v99.7c0,1,0.4,1.9,1.1,2.6c0.7,0.7,1.6,1.1,2.6,1.1
		h68.7c1.1,0,2-0.3,2.8-1c0.7-0.7,1.1-1.6,1.1-2.7v-10.4c0-1.1-0.4-2-1.1-2.7C185.5,206,184.5,205.7,183.4,205.7z"/>
	<path class="st0" d="M76.5,167.3c3.5-1.6,6.5-4.3,9.1-8c2.6-3.7,3.9-8.2,3.9-13.5c0-9.1-3-16.3-8.9-21.5
		c-5.9-5.3-14.9-7.9-26.8-7.9H9.5c-1.1,0-2,0.4-2.7,1.1c-0.7,0.7-1,1.6-1,2.8v99.7c0,1,0.4,1.9,1.1,2.6c0.7,0.7,1.6,1.1,2.6,1.1
		h45.8c11.5,0,20.5-2.9,26.9-8.7c6.4-5.8,9.6-13.5,9.6-23c0-5.6-1.5-10.6-4.4-15C84.5,172.4,80.8,169.2,76.5,167.3z M27.4,132.7
		h23.7c5.3,0,9.3,1.2,12.1,3.5c2.8,2.3,4.1,5.7,4.1,10c0,4.3-1.4,7.7-4.2,10.3c-2.8,2.6-6.8,3.8-12,3.8H27.4V132.7z M65.1,202.7
		c-3,2.9-7.1,4.4-12.4,4.4H27.4v-30.9h25.3c5.2,0,9.3,1.5,12.3,4.4c3,2.9,4.5,6.6,4.5,11.1C69.5,196.1,68,199.8,65.1,202.7z"/>
	<path class="st0" d="M723.1,116.3h-13.2c-1.1,0-2,0.4-2.7,1.1c-0.7,0.7-1,1.6-1,2.8v66.8l-43.8-68c-1-1.7-2.5-2.6-4.4-2.6h-11.9
		c-1.1,0-2,0.4-2.7,1.1c-0.7,0.7-1,1.6-1,2.8v99.7c0,1,0.4,1.9,1.1,2.6c0.7,0.7,1.6,1.1,2.6,1.1h13.2c1.1,0,2-0.4,2.7-1.1
		c0.7-0.7,1-1.6,1-2.6v-65.4l43.6,66.4c1,1.7,2.5,2.6,4.6,2.6h12.1c1,0,1.9-0.4,2.6-1.1c0.7-0.7,1.1-1.6,1.1-2.8v-99.5
		c0-1.1-0.4-2-1.1-2.8C725.2,116.7,724.2,116.3,723.1,116.3z"/>
	<path class="st0" d="M509.8,163.5h-36.7c-1,0-1.9,0.4-2.6,1.1c-0.7,0.7-1.1,1.6-1.1,2.6v8.4c0,1,0.4,1.9,1.1,2.6
		c0.7,0.7,1.6,1.1,2.6,1.1h18.7v4.7c0,7.8-2.2,13.6-6.6,17.5c-4.4,3.9-10.2,5.8-17.5,5.8c-7.1,0-12.8-2-16.8-5.9
		c-4.1-3.9-6.2-10-6.4-18.3c-0.1-3.1-0.2-7.6-0.2-13.5c0-6,0.1-10.5,0.2-13.5c0.2-8.1,2.3-14,6.4-17.8c4-3.8,9.6-5.7,16.8-5.7
		c6.1,0,11,1.3,14.5,4c3.6,2.7,6.1,5.9,7.5,9.6c0.4,0.9,0.9,1.6,1.4,2c0.5,0.4,1.3,0.6,2.3,0.6h16.1c1,0,1.8-0.3,2.4-0.9
		c0.6-0.6,0.9-1.4,0.9-2.3c-0.2-4.6-2-9.3-5.5-14c-3.5-4.7-8.6-8.7-15.4-11.9c-6.8-3.2-14.9-4.8-24.3-4.8
		c-13.9,0-24.8,3.6-32.8,10.8c-8,7.2-12.1,17.1-12.6,29.8c-0.1,3-0.2,7.7-0.2,14.2c0,6.5,0.1,11.3,0.2,14.2
		c0.5,13,4.7,23.1,12.5,30.3c7.8,7.2,18.8,10.9,32.8,10.9c9.3,0,17.4-1.7,24.3-5.1c6.9-3.4,12.3-8.2,16.1-14.5
		c3.8-6.3,5.7-13.7,5.7-22.1v-16.2c0-1-0.4-1.9-1.1-2.6C511.9,163.8,511,163.5,509.8,163.5z"/>
	<path class="st0" d="M615.8,116.3h-14.1c-1.1,0-2,0.4-2.8,1.1c-0.7,0.7-1.1,1.6-1.1,2.8v62.3c0,8.1-1.9,14.1-5.7,18.2
		c-3.8,4.1-9.3,6.1-16.3,6.1c-7,0-12.5-2-16.3-6.1c-3.8-4.1-5.7-10.2-5.7-18.2v-62.3c0-1.1-0.4-2-1.1-2.8c-0.7-0.7-1.6-1.1-2.8-1.1
		h-14.1c-1.1,0-2,0.4-2.7,1.1c-0.7,0.7-1,1.6-1,2.8v62.3c0,14.3,3.8,25,11.5,32c7.7,7,18.4,10.6,32.3,10.6
		c13.8,0,24.5-3.5,32.1-10.6c7.6-7,11.4-17.7,11.4-32v-62.3c0-1.1-0.3-2-1-2.8C617.8,116.7,616.9,116.3,615.8,116.3z"/>
	<path class="st0" d="M834.7,163.5H798c-1,0-1.9,0.4-2.6,1.1c-0.7,0.7-1.1,1.6-1.1,2.6v8.4c0,1,0.4,1.9,1.1,2.6
		c0.7,0.7,1.6,1.1,2.6,1.1h18.7v4.7c0,7.8-2.2,13.6-6.6,17.5c-4.4,3.9-10.2,5.8-17.5,5.8c-7.1,0-12.8-2-16.8-5.9
		c-4.1-3.9-6.2-10-6.4-18.3c-0.1-3.1-0.2-7.6-0.2-13.5c0-6,0.1-10.5,0.2-13.5c0.2-8.1,2.3-14,6.4-17.8c4-3.8,9.6-5.7,16.8-5.7
		c6.1,0,11,1.3,14.5,4c3.6,2.7,6.1,5.9,7.5,9.6c0.4,0.9,0.9,1.6,1.4,2c0.5,0.4,1.3,0.6,2.3,0.6h16.1c1,0,1.8-0.3,2.4-0.9
		c0.6-0.6,0.9-1.4,0.9-2.3c-0.2-4.6-2-9.3-5.5-14c-3.5-4.7-8.6-8.7-15.4-11.9c-6.8-3.2-14.9-4.8-24.3-4.8
		c-13.9,0-24.8,3.6-32.8,10.8c-8,7.2-12.1,17.1-12.6,29.8c-0.1,3-0.1,7.7-0.1,14.2c0,6.5,0,11.3,0.1,14.2c0.5,13,4.7,23.1,12.5,30.3
		c7.8,7.2,18.8,10.9,32.8,10.9c9.3,0,17.4-1.7,24.3-5.1c6.9-3.4,12.3-8.2,16.1-14.5c3.8-6.3,5.7-13.7,5.7-22.1v-16.2
		c0-1-0.4-1.9-1.1-2.6C836.8,163.8,835.9,163.5,834.7,163.5z"/>
	<path class="st0" d="M253.8,82.9c5.7,5.2,13.7,7.8,24.1,7.8c10.2,0,18.2-2.6,24-7.8c5.8-5.2,8.8-12.9,9.1-23.2
		c0.1-4.4,0.2-7.6,0.2-9.6c0-2.1-0.1-5.3-0.2-9.7c-0.3-10-3.4-17.7-9.3-23.1c-5.9-5.3-13.8-8-23.8-8c-10,0-18,2.7-23.8,8
		c-5.9,5.3-9,13-9.3,23.1c-0.1,2.2-0.1,5.4-0.1,9.7c0,4.2,0,7.4,0.1,9.6C245.1,69.9,248.1,77.7,253.8,82.9z M261.2,40.8
		c0.2-6.2,1.7-10.8,4.7-13.8c3-3.1,7-4.6,12-4.6c4.9,0,8.9,1.5,11.9,4.6c3,3.1,4.6,7.7,4.9,13.8c0.2,4.4,0.2,7.4,0.2,9.2
		c0,1.6-0.1,4.6-0.2,9.2c-0.2,6.3-1.8,10.9-4.7,13.9c-2.9,3-6.9,4.5-12,4.5c-5,0-9.1-1.5-12-4.6c-3-3.1-4.5-7.7-4.7-13.8
		c-0.1-2.3-0.1-5.3-0.1-9.2C261.1,46.1,261.1,43,261.2,40.8z"/>
	<path class="st0" d="M88,89.5h50.7c0.8,0,1.5-0.2,2-0.7c0.5-0.5,0.8-1.1,0.8-2v-7.7c0-0.8-0.3-1.5-0.8-2c-0.5-0.5-1.2-0.7-2-0.7
		h-38V56h34.6c0.8,0,1.5-0.2,2-0.7c0.5-0.5,0.8-1.1,0.8-2v-7.1c0-0.8-0.3-1.5-0.8-2c-0.5-0.5-1.2-0.8-2-0.8h-34.6V23.5h37.1
		c0.8,0,1.5-0.2,2-0.7c0.5-0.5,0.8-1.1,0.8-2v-7.6c0-0.8-0.3-1.5-0.8-2c-0.5-0.5-1.2-0.8-2-0.8H88c-0.8,0-1.5,0.3-2,0.8
		c-0.5,0.5-0.7,1.2-0.7,2v73.6c0,0.8,0.3,1.4,0.8,1.9C86.6,89.3,87.2,89.5,88,89.5z"/>
	<path class="st0" d="M540.3,24.6h20.9v62.3c0,0.8,0.3,1.4,0.8,1.9c0.5,0.5,1.2,0.8,1.9,0.8h10.6c0.8,0,1.5-0.3,2-0.8
		c0.5-0.5,0.7-1.2,0.7-1.9V24.6H598c0.8,0,1.5-0.3,2-0.8c0.5-0.5,0.8-1.2,0.8-2v-8.5c0-0.8-0.3-1.5-0.8-2c-0.5-0.5-1.2-0.8-2-0.8
		h-57.7c-0.8,0-1.5,0.3-2,0.8c-0.5,0.5-0.7,1.2-0.7,2v8.5c0,0.8,0.3,1.5,0.8,2C538.9,24.3,539.5,24.6,540.3,24.6z"/>
	<path class="st0" d="M837.8,11.2c-0.5-0.5-1.2-0.8-2-0.8H826c-0.8,0-1.5,0.3-2,0.8c-0.5,0.5-0.7,1.2-0.7,2v49.3L791,12.4
		c-0.8-1.3-1.8-1.9-3.3-1.9h-8.8c-0.8,0-1.5,0.3-2,0.8c-0.5,0.5-0.7,1.2-0.7,2v73.6c0,0.8,0.3,1.4,0.8,1.9c0.5,0.5,1.2,0.8,1.9,0.8
		h9.7c0.8,0,1.5-0.3,2-0.8c0.5-0.5,0.7-1.2,0.7-1.9V38.6l32.2,49c0.8,1.3,1.9,1.9,3.4,1.9h8.9c0.7,0,1.4-0.3,1.9-0.8
		c0.5-0.5,0.8-1.2,0.8-2V13.3C838.6,12.4,838.3,11.8,837.8,11.2z"/>
	<path class="st0" d="M648.8,89.5h50.7c0.8,0,1.5-0.2,2-0.7c0.5-0.5,0.8-1.1,0.8-2v-7.7c0-0.8-0.3-1.5-0.8-2c-0.5-0.5-1.2-0.7-2-0.7
		h-38V56h34.6c0.8,0,1.5-0.2,2-0.7c0.5-0.5,0.8-1.1,0.8-2v-7.1c0-0.8-0.3-1.5-0.8-2c-0.5-0.5-1.2-0.8-2-0.8h-34.6V23.5h37.1
		c0.8,0,1.5-0.2,2-0.7c0.5-0.5,0.8-1.1,0.8-2v-7.6c0-0.8-0.3-1.5-0.8-2c-0.5-0.5-1.2-0.8-2-0.8h-49.8c-0.8,0-1.5,0.3-2,0.8
		c-0.5,0.5-0.7,1.2-0.7,2v73.6c0,0.8,0.3,1.4,0.8,1.9C647.4,89.3,648.1,89.5,648.8,89.5z"/>
	<path class="st0" d="M214.5,86.8c0,0.8,0.3,1.4,0.8,1.9c0.5,0.5,1.2,0.8,1.9,0.8h9.7c0.8,0,1.5-0.2,2-0.7c0.5-0.5,0.8-1.1,0.8-2
		V13.3c0-0.8-0.3-1.5-0.8-2c-0.5-0.5-1.2-0.8-2-0.8h-9c-1.4,0-2.6,0.7-3.4,2.1L192.7,53l-21.8-40.5c-0.8-1.4-2-2.1-3.4-2.1h-9.2
		c-0.8,0-1.5,0.3-2,0.8c-0.5,0.5-0.7,1.2-0.7,2v73.6c0,0.8,0.3,1.4,0.8,1.9c0.5,0.5,1.2,0.8,1.9,0.8h9.7c0.8,0,1.5-0.3,2-0.8
		c0.5-0.5,0.7-1.2,0.7-1.9V38.2l15.7,29.8c1,1.7,2.3,2.5,3.8,2.5h4.7c1.7,0,2.9-0.8,3.7-2.5l15.7-29.8V86.8z"/>
	<path class="st0" d="M443.3,86.5c0.5,0.9,1.1,1.6,1.8,2.2c0.7,0.6,1.6,0.8,2.8,0.8h10.4c0.6,0,1.1-0.2,1.6-0.7
		c0.5-0.5,0.7-1,0.7-1.7c0-0.4-0.1-0.8-0.3-1.2L444,57.1c4.7-1.7,8.4-4.4,11.1-8.1c2.6-3.7,4-8.3,4-13.8c0-7.9-2.6-14-7.9-18.3
		c-5.2-4.3-12.5-6.4-21.8-6.4h-29.3c-0.8,0-1.5,0.3-2,0.8c-0.5,0.5-0.7,1.2-0.7,2v73.6c0,0.8,0.3,1.4,0.8,1.9
		c0.5,0.5,1.2,0.8,1.9,0.8h10.4c0.8,0,1.5-0.3,2-0.8c0.5-0.5,0.8-1.2,0.8-1.9V59.7h15.5L443.3,86.5z M413.4,23.1h15.7
		c4.5,0,7.9,1,10.2,3.1c2.3,2.1,3.4,5,3.4,8.9c0,3.8-1.1,6.8-3.4,8.8c-2.3,2-5.7,3-10.2,3h-15.7V23.1z"/>
	<path class="st0" d="M340.8,88.7c0.5-0.5,0.8-1.2,0.8-1.9V57.7l27,29.8c0.1,0.1,0.5,0.4,1.1,1.1c0.7,0.6,1.8,1,3.4,1H385
		c0.6,0,1.1-0.2,1.6-0.7c0.5-0.5,0.7-1,0.7-1.7c0-0.5-0.2-0.9-0.5-1.5l-33-37.4l30.7-34.1c0.4-0.4,0.6-0.8,0.6-1.4
		c0-0.7-0.2-1.2-0.7-1.7c-0.5-0.5-1-0.7-1.6-0.7h-11.5c-1.8,0-3.3,0.7-4.4,2l-25.2,27.2V13.3c0-0.8-0.3-1.5-0.8-2
		c-0.5-0.5-1.2-0.8-2-0.8h-10.2c-0.8,0-1.5,0.3-2,0.8c-0.5,0.5-0.7,1.2-0.7,2v73.6c0,0.8,0.3,1.4,0.8,1.9c0.5,0.5,1.2,0.8,1.9,0.8
		h10.2C339.6,89.5,340.3,89.3,340.8,88.7z"/>
	<path class="st0" d="M8.5,89.5h28.1c11.2,0,19.5-2.5,24.9-7.5c5.4-5,8.2-12.8,8.5-23.3c0.2-4.4,0.2-7.3,0.2-8.7
		c0-1.5-0.1-4.4-0.2-8.8c-0.5-20.5-11.8-30.7-34-30.7H8.5c-0.8,0-1.5,0.3-2,0.8c-0.5,0.5-0.7,1.2-0.7,2v73.6c0,0.8,0.3,1.4,0.8,1.9
		C7.1,89.3,7.8,89.5,8.5,89.5z M21.7,23.5h13.8c6.3,0,11,1.5,13.9,4.4c2.9,2.9,4.5,7.4,4.6,13.6c0.1,4.4,0.2,7.2,0.2,8.4
		c0,1.1-0.1,4-0.2,8.5c-0.2,6.5-1.6,11.1-4.4,13.9c-2.8,2.8-7.3,4.2-13.6,4.2H21.7V23.5z"/>
	<path class="st0" d="M540.9,88.9c0.5-0.5,0.7-1,0.7-1.7l-0.2-1l-27.1-72.9c-0.8-1.9-2.1-2.8-4.1-2.8h-12.4c-2,0-3.3,0.9-4.1,2.8
		l-27.1,72.9l-0.2,1c0,0.7,0.2,1.2,0.7,1.7c0.5,0.5,1,0.7,1.7,0.7h10.1c1.6,0,2.7-0.7,3.3-2.1l5.2-13.7h33.4l5.2,13.7
		c0.6,1.4,1.7,2.1,3.3,2.1h10.1C539.8,89.5,540.4,89.3,540.9,88.9z M491.2,60.6L504,25.8l12.8,34.8H491.2z"/>
	<path class="st0" d="M625.8,10.4h-10.8c-0.8,0-1.4,0.2-1.9,0.7c-0.5,0.5-0.8,1.2-0.8,2v73.7c0,0.8,0.3,1.4,0.8,1.9
		c0.5,0.5,1.2,0.8,1.9,0.8h10.8c0.8,0,1.5-0.3,2-0.8c0.5-0.5,0.7-1.2,0.7-1.9V13.1c0-0.8-0.2-1.5-0.7-2
		C627.3,10.7,626.6,10.4,625.8,10.4z"/>
	<path class="st0" d="M757.8,88.7c0.5-0.5,0.7-1.2,0.7-1.9V13.1c0-0.8-0.2-1.5-0.7-2c-0.5-0.5-1.2-0.7-2-0.7H745
		c-0.8,0-1.4,0.2-1.9,0.7c-0.5,0.5-0.8,1.2-0.8,2v73.7c0,0.8,0.3,1.4,0.8,1.9c0.5,0.5,1.2,0.8,1.9,0.8h10.9
		C756.7,89.5,757.3,89.3,757.8,88.7z"/>
</g>
</svg>
